<?xml version="1.0" encoding="UTF-8" standalone="no"?>
<svg
   width="64"
   height="64"
   viewBox="0 0 32 32"
   version="1.1"
   id="svg90"
   sodipodi:docname="bash.svg"
   inkscape:version="1.1.2 (0a00cf5339, 2022-02-04, custom)"
   xmlns:inkscape="http://www.inkscape.org/namespaces/inkscape"
   xmlns:sodipodi="http://sodipodi.sourceforge.net/DTD/sodipodi-0.dtd"
   xmlns="http://www.w3.org/2000/svg"
   xmlns:svg="http://www.w3.org/2000/svg">
  <defs
     id="defs94" />
  <sodipodi:namedview
     id="namedview92"
     pagecolor="#505050"
     bordercolor="#ffffff"
     borderopacity="1"
     inkscape:pageshadow="0"
     inkscape:pageopacity="0"
     inkscape:pagecheckerboard="1"
     showgrid="false"
     inkscape:zoom="8"
     inkscape:cx="48.0625"
     inkscape:cy="24.875"
     inkscape:window-width="1918"
     inkscape:window-height="1044"
     inkscape:window-x="1920"
     inkscape:window-y="17"
     inkscape:window-maximized="1"
     inkscape:current-layer="layer1" />
  <g
     inkscape:groupmode="layer"
     id="layer2"
     inkscape:label="Background"
     style="display:inline">
    <path
       style="display:inline;fill:#ffffff;stroke:#ffffff;stroke-width:0.5px;stroke-linecap:butt;stroke-linejoin:miter;stroke-opacity:0"
       d="M 15.942043,31.767153 3.4174564,24.921832 2.6076223,23.163832 2.3562256,9.66491 3.4858816,7.2458955 15.095607,0.42288476 l 2.233376,0.0919479 11.34171,6.78757134 0.949714,2.089257 0.08222,13.161475 -1.375163,2.28524 z"
       id="path293" />
    <path
       style="fill:#3aab49;stroke:#000000;stroke-width:0.5px;stroke-linecap:butt;stroke-linejoin:miter;stroke-opacity:1;fill-opacity:1"
       d="m 22.427818,24.50458 0.132431,1.601993 3.487946,-1.950984 -0.301823,-1.55956 z"
       id="path2168" />
  </g>
  <g
     inkscape:groupmode="layer"
     id="layer3"
     inkscape:label="Greenline" />
  <g
     inkscape:groupmode="layer"
     id="layer1"
     inkscape:label="Foreground"
     style="display:inline">
    <path
       d="M 28.057,6.53 17.952,0.532 a 3.8,3.8 0 0 0 -3.88,0 L 3.965,6.53 A 4.03,4.03 0 0 0 2,10.002 v 11.996 a 4.03,4.03 0 0 0 1.948,3.472 l 10.105,5.998 a 3.8,3.8 0 0 0 3.88,0 L 28.04,25.47 a 4.03,4.03 0 0 0 1.948,-3.472 V 10.002 A 4.03,4.03 0 0 0 28.058,6.53 Z M 20.23,25.262 v 0.86 c -0.001,0.108 -0.057,0.207 -0.148,0.265 L 19.57,26.68 c -0.08,0.042 -0.148,0 -0.148,-0.113 V 25.72 a 1.66,1.66 0 0 1 -1.164,0.113 c -0.062,-0.042 -0.086,-0.122 -0.056,-0.2 l 0.183,-0.78 c 0.016,-0.066 0.05,-0.125 0.102,-0.17 a 0.18,0.18 0 0 1 0.05,-0.035 0.11,0.11 0 0 1 0.08,0 1.41,1.41 0 0 0 1.059,-0.134 1.41,1.41 0 0 0 0.79,-1.21 c 0,-0.438 -0.24,-0.62 -0.82,-0.625 -0.734,0 -1.4,-0.14 -1.43,-1.224 0.017,-0.937 0.452,-1.817 1.186,-2.4 v -0.872 c -0.001,-0.1 0.056,-0.2 0.148,-0.268 l 0.494,-0.314 c 0.08,-0.042 0.148,0 0.148,0.116 v 0.872 a 1.61,1.61 0 0 1 0.967,-0.116 c 0.07,0.04 0.098,0.128 0.064,0.2 l -0.173,0.773 c -0.015,0.06 -0.045,0.113 -0.088,0.155 -0.014,0.015 -0.03,0.028 -0.05,0.04 -0.02,0.012 -0.05,0.008 -0.074,0 a 1.28,1.28 0 0 0 -0.931,0.152 1.17,1.17 0 0 0 -0.706,1.037 c 0,0.395 0.208,0.515 0.907,0.53 0.935,0 1.337,0.423 1.348,1.362 -0.018,0.983 -0.467,1.908 -1.228,2.53 z m 5.293,-1.45 c 0.012,0.074 -0.018,0.15 -0.078,0.194 L 22.9,25.558 c -0.024,0.02 -0.06,0.023 -0.087,0.007 -0.027,-0.016 -0.04,-0.05 -0.033,-0.08 v -0.66 c 0.003,-0.072 0.05,-0.136 0.116,-0.162 l 2.516,-1.507 c 0.024,-0.02 0.06,-0.023 0.087,-0.007 0.027,0.016 0.04,0.05 0.033,0.08 v 0.582 z M 27.288,9.06 17.726,14.966 c -1.193,0.706 -2.07,1.478 -2.07,2.914 v 11.778 c 0,0.86 0.353,1.4 0.882,1.58 a 3.14,3.14 0 0 1 -0.53,0.053 3.13,3.13 0 0 1 -1.595,-0.441 L 4.308,24.853 C 3.3,24.25 2.702,23.165 2.706,22 V 10.002 C 2.7,8.834 3.3,7.75 4.308,7.144 L 14.413,1.146 c 0.98,-0.58 2.196,-0.58 3.176,0 l 10.105,5.998 c 0.833,0.504 1.4,1.35 1.552,2.3 -0.328,-0.713 -1.083,-0.9 -1.962,-0.395 h 0.003 z"
       fill="#1b1b1f"
       fill-rule="evenodd"
       id="path88"
       style="fill:#2a3439;fill-opacity:1" />
  </g>
</svg>
